<svg width="24" height="24" viewBox="0 0 24 24" fill="none" xmlns="http://www.w3.org/2000/svg">
<path d="M11.3789 4.54785C11.5677 3.93719 12.4323 3.93719 12.6211 4.54785L13.8184 8.4209C14.0968 9.32148 14.9295 9.93631 15.8721 9.93652H19.8281C20.4514 9.93652 20.7176 10.7284 20.2207 11.1045L16.8906 13.623C16.1689 14.1689 15.8665 15.1091 16.1338 15.9736L17.3867 20.0264C17.5734 20.6313 16.8728 21.1193 16.3701 20.7344L13.3076 18.3877C12.5361 17.7967 11.4639 17.7967 10.6924 18.3877L7.61328 20.7471C7.11126 21.1311 6.41157 20.6446 6.59668 20.04L7.83203 16.0049C8.09492 15.1463 7.79679 14.214 7.08398 13.668L3.73438 11.1025C3.24116 10.7247 3.50858 9.93652 4.12988 9.93652H8.12793C9.07053 9.93631 9.90322 9.32147 10.1816 8.4209L11.3789 4.54785Z" stroke="#FAFAFA" stroke-width="1.5"/>
</svg>
